<svg xmlns="http://www.w3.org/2000/svg" width="156" height="53"><g fill="none" fill-rule="evenodd"><g fill="#FFF"><path d="M87.9 31.68c-1.78 1.7-3.78 2.77-6.08 2.77-1.92 0-3-.92-3-2.7 0-2.14 1.7-4.07 9.07-5.37v5.3zm1.45-.23v-7.23c0-2.84-1.54-4.68-4.69-4.68-2.92 0-4.84 1.15-6.76 2.92l1 .84c1.69-1.54 3.23-2.53 5.76-2.53 2.08 0 3.3 1.15 3.3 3.53v.92c-7.99 1.39-10.45 3.62-10.45 6.54 0 2.38 1.54 3.84 4.3 3.84 2.31 0 4.31-1 6.16-2.61 0 .84.15 1.61.38 2.3h1.46c-.3-.76-.46-1.92-.46-3.84zm8.53-2c-2.69 0-4.45-1.77-4.45-4.3 0-2.62 1.76-4.38 4.45-4.38 2.85 0 4.46 1.76 4.46 4.38 0 2.53-1.76 4.3-4.46 4.3zm-2.53 4.61c.23 0 .46.08.77.08l3.15.23c3 .23 4.3 1.15 4.3 2.77 0 1.69-2 2.92-5.3 2.92-4.15 0-5.84-1.15-5.84-2.84 0-1.39 1-2.54 2.92-3.16zm10.14-14.22a8.2 8.2 0 0 0-3.45 1.39 5.5 5.5 0 0 0-4.16-1.7c-3.15 0-5.84 2.23-5.84 5.62 0 1.92.85 3.53 2.23 4.46-1.08.53-1.77 1.23-1.77 2.15 0 1 .47 1.61 1.46 2-1.92.77-2.92 2-2.92 3.61 0 2.38 2.39 3.92 7.15 3.92 3.92 0 6.77-1.54 6.77-4.23 0-2.3-1.93-3.53-5.08-3.84l-3.53-.3c-1.85-.16-2.46-.62-2.46-1.24 0-.61.54-1.15 1.38-1.46.77.3 1.7.54 2.61.54 3.16 0 5.85-2.08 5.85-5.54 0-1.3-.39-2.38-1.08-3.3a6.95 6.95 0 0 1 2.84-.54v-1.54zm1.85 6.7c.38-3.85 2.61-5.7 5-5.7 2.92 0 4.38 2.54 4.6 5.7h-9.6zm11.07.99c0-4.92-2.46-8-6.07-8-3.23 0-6.46 2.7-6.46 8.08 0 5.07 3 8.07 6.38 8.07 2.92 0 4.77-1.46 6-3.77l-1-.61c-1.16 2.07-2.54 3.23-4.92 3.23-2.85 0-5.08-2.54-5.08-6.77h11.15v-.23zm9.53-8c-2.23 0-4.23 1.23-5.92 2.93v-2.54h-1.38v15.45h1.38v-11.6c1.92-1.85 3.7-2.93 5.77-2.93 2.3 0 3.3 1.15 3.3 3.54v11.07h1.46V24.22c0-2.92-1.46-4.68-4.6-4.68m9.6 12.14V21.15h4v-1.23h-4v-5.61h-1.38v5.61h-2.7v1.23h2.7v10.76c0 2.62 1.23 3.61 3.76 3.61.62 0 1.23-.07 1.7-.15v-1.3c-.47.15-1 .22-1.62.22-1.84 0-2.46-1-2.46-2.6m11.38 2.76c-3.46 0-5.3-3.23-5.3-6.84 0-3.85 2-6.77 5.3-6.77 3.46 0 5.3 3.23 5.3 6.77 0 3.92-2 6.84-5.3 6.84m0-14.91c-3.77 0-6.69 3.07-6.69 8.07 0 4.92 2.92 8.07 6.69 8.07 3.76 0 6.69-3.15 6.69-8.07 0-5-2.93-8.07-6.7-8.07M65.52 33.3l-7.76-19.76H55.9v21.75h1.39V16.4h.07l7.46 18.9h1.3l7.46-18.9h.08v18.9h1.46V13.54h-1.84z"/></g><path fill="#FFF" d="M42.95 37.93l-10.2 5.83 10.2-29.12-20.38 12.01v22.93L2.18 37.93v-23.3L22.57 2.27l20.38 12.38v23.3zM44.63 12L23.08-.53l-.51-.29-.51.3L.5 12l-.51.29v28.07l22.06 12.35.5.29 21.56-12.64.86-.48v-27.6l-.35-.28z"/><path fill="#F2EFEA" d="M43.02 14.05L22.57 1.45l-20.7 12.6 8.92-4.68 11.78 17.28 11.65-17.1z"/><path fill="#F2EFEA" d="M2.05 14.1l10.33 30.45 10.65 5.93V26z"/><path fill="#D4310B" d="M2.14 14.02l-.17 24.53 11.18 6.77z"/><path fill="#FF3C12" d="M22.7 27.03l11.38-17.9 9.03 5.51-20.42 12.4zM2.01 14.5l8.9-4.96 12.1 17.66-21-12.7z"/><path fill="#FFA729" d="M32.14 44.57l10.81-6.64v-23.3z"/></g></svg>